<svg xmlns="http://www.w3.org/2000/svg" viewBox="0 0 1536 1536"><defs><style>.cls-1{fill:#fafcff;}.cls-2{fill:#576573;}</style></defs><title>logo-mini</title><g id="Layer_2" data-name="Layer 2"><g id="Layer_1-2" data-name="Layer 1"><g id="minilogo"><rect class="cls-1" width="1536" height="1536"/><path class="cls-2" d="M1006.67,523.83V607H950.48V865.37c0,54-8.76,97.06-47.44,137.2-37.22,38.68-86.11,52.54-137.93,52.54-50.35,0-97.06-11.67-134.28-48.16C588.51,965.34,579,919.37,579,862.45V607H522.83V523.83H725.7V607H678.27V852.23c0,24.81.73,51.08,15.32,73,16.06,24.08,43.06,36.49,71.52,36.49,26.27,0,50.35-10.22,67.14-31.38,17.51-22.62,19-51.08,19-78.08V607H803.79V523.83Z"/><path class="cls-2" d="M768,247c139.18,0,270,54.2,368.43,152.61S1289,628.82,1289,768s-54.2,270-152.61,368.43S907.18,1289,768,1289s-270-54.2-368.43-152.61S247,907.18,247,768s54.2-270,152.61-368.43S628.82,247,768,247m0-10c-293.26,0-531,237.74-531,531s237.74,531,531,531,531-237.74,531-531S1061.26,237,768,237Z"/></g></g></g></svg>