<svg xmlns="http://www.w3.org/2000/svg" viewBox="0 0 340.59 251.28"><defs><style>.cls-1{fill:#ffd65c;}.cls-2{fill:#f27557;}</style></defs><g id="Layer_2" data-name="Layer 2"><g id="Layer_4" data-name="Layer 4"><path class="cls-1" d="M250.39,54.16A71.5,71.5,0,0,0,115,44a97.54,97.54,0,1,0,64.66,148.54,83.49,83.49,0,1,0,70.71-138.4Z"/><path class="cls-2" d="M265.27,67.93A71.5,71.5,0,0,0,129.9,57.79a97.53,97.53,0,1,0,64.66,148.55A83.49,83.49,0,1,0,265.27,67.93Z"/><path class="cls-1" d="M160.25,108.46h-1v40.41a33.63,33.63,0,0,0,33.63,33.63h1V142.08A33.63,33.63,0,0,0,160.25,108.46Z"/><circle class="cls-1" cx="176.58" cy="82.28" r="17.73"/></g></g></svg>