<svg xmlns="http://www.w3.org/2000/svg" width="122.23" height="122.23" viewBox="0 0 122.23 122.23"><g id="Layer_2" data-name="Layer 2"><g id="Layer_2-2" data-name="Layer 2"><path d="M118.54,90.39,89.32,61.17,118.54,32c10.47-10.75-4-21.07-11-28.26a12.21,12.21,0,0,0-17.27,0L61.06,32.91,31.84,3.69C21.09-6.78,10.77,7.63,3.58,14.68A12.21,12.21,0,0,0,3.58,32L32.8,61.17,3.58,90.39a12.21,12.21,0,0,0,0,17.27l11,11a12.22,12.22,0,0,0,17.28,0L61.06,89.43l29.22,29.22a12.21,12.21,0,0,0,17.27,0l11-11A12.21,12.21,0,0,0,118.54,90.39Z" fill="none"/></g></g></svg>