<svg xmlns="http://www.w3.org/2000/svg" viewBox="0 0 52.9 52.12"><defs><style>.cls-1{opacity:0.8;}.cls-2{fill:#fff;}.cls-3{fill:#f23545;}</style></defs><g id="Layer_2" data-name="Layer 2"><g id="Layer_2-2" data-name="Layer 2"><g class="cls-1"><path class="cls-2" d="M25.69,0c-34.26.58-34.25,51.54,0,52.12C59.94,51.53,59.94.58,25.69,0ZM41.07,29.2c.45,2-10.44.62-11.23,1-.75,11.72,3.29,11.51-7.29,11.23-2,.45-.61-10.44-1-11.23C9.82,29.46,10,33.5,10.3,22.92c-.44-2,10.44-.61,11.24-1,.75-11.72-3.29-11.51,7.29-11.23,2-.45.61,10.43,1,11.23C41.51,22.67,41.36,18.61,41.07,29.2Z"/><path class="cls-3" d="M27.21,0C-7,.58-7,51.54,27.21,52.12,61.47,51.53,61.46.58,27.21,0ZM42.6,29.2c.45,2-10.44.62-11.24,1-.75,11.72,3.29,11.51-7.29,11.23-2,.45-.61-10.44-1-11.23-11.72-.75-11.51,3.29-11.23-7.29-.45-2,10.44-.61,11.23-1,.76-11.72-3.29-11.51,7.29-11.23,2-.45.62,10.43,1,11.23C43,22.67,42.89,18.61,42.6,29.2Z"/></g></g></g></svg>