<svg xmlns="http://www.w3.org/2000/svg" viewBox="0 0 134.87 133.6"><defs><style>.cls-1{fill:#ffeae6;}.cls-2{fill:#f27557;}</style></defs><g id="Layer_2" data-name="Layer 2"><g id="Layer_4" data-name="Layer 4"><path class="cls-1" d="M65.93,1.73a65.94,65.94,0,1,0,65.94,65.94A65.93,65.93,0,0,0,65.93,1.73Zm38.93,73.88a2.56,2.56,0,0,1-2.56,2.56H76.43V104a2.55,2.55,0,0,1-2.55,2.55H58A2.56,2.56,0,0,1,55.43,104V78.17H29.56A2.56,2.56,0,0,1,27,75.61V59.72a2.55,2.55,0,0,1,2.55-2.55H55.43V31.3A2.56,2.56,0,0,1,58,28.74H73.88a2.56,2.56,0,0,1,2.55,2.56V57.17H102.3a2.56,2.56,0,0,1,2.56,2.55Z"/><path class="cls-2" d="M68.94,0a65.94,65.94,0,1,0,65.93,65.93A65.93,65.93,0,0,0,68.94,0Zm38.92,73.88a2.55,2.55,0,0,1-2.55,2.55H79.44V102.3a2.56,2.56,0,0,1-2.56,2.56H61a2.56,2.56,0,0,1-2.55-2.56V76.43H32.57A2.56,2.56,0,0,1,30,73.88V58a2.56,2.56,0,0,1,2.56-2.56H58.44V29.56A2.55,2.55,0,0,1,61,27H76.88a2.55,2.55,0,0,1,2.56,2.55V55.43h25.87A2.56,2.56,0,0,1,107.86,58Z"/></g></g></svg>