<svg xmlns="http://www.w3.org/2000/svg" viewBox="0 0 185.8 169.64"><defs><style>.cls-1{fill:#f1585d;}</style></defs><g id="Layer_2" data-name="Layer 2"><g id="Layer_1-2" data-name="Layer 1"><g id="Cancel"><path class="cls-1" d="M185.79,135.94c.13-1.15-.66-1.95-1.36-2.76A3.13,3.13,0,0,0,185.79,135.94Z"/><path class="cls-1" d="M184.43,133.15h0l0,0Z"/><path class="cls-1" d="M0,32.31l.7.52A2,2,0,0,0,0,32.31Z"/><path class="cls-1" d="M147.2,97.67,146,98.78c-1.93-1.62.63-1.87-1.4-3.08-2.16,1.13-2.78-2.69-4.17-2.29.13-.13-.69-.92-.18-1.41-1.06.7-1.07-.55-1.82-.78-.42.1-.1.41-.19.82l-1.53-.74c-.23-.72.12-1.37.73-1-3-3.13-17.9-17.44-21.82-20-.15,1.09,1.34,1.54.81,3-1.46-.17-1.19-1.38-2.16-1.08,1.06-2-1.7-2.15-1-4.42l-1.07.71,0-1c-4.92-2.53-1.34-.32-4.78-3.65-2.22-1.65-4.33-1.21-5.09-2.68.17.16.14,1.12-.61.9.61-.9-2-.65-1.51-1.71-.62-.35-2.25-1.93-2.63-.31.19-.81-1.16-2.36.18-2.06-.5-.48-.86-1.07-1.44-1.14l.4.88c-1.9-1.34-2.11-3-4.12-3l.26,1c-1.1-.82-2-1.49-1.52-3l1.37.58A13.49,13.49,0,0,0,88,50.48l.49.47c-2.79-.47-13.24-7.82-16.13-7.89l0,1.53-2.08-.52c.16.16,3.09-2.19,3-1.79-3.21-2.6-20.1-15.88-22.5-18.94-.76-1.48,1-1.55,1.09-1.67-1.7-.9-1.39.39-2.54-.72-.2-.44.64-.62.94-.58-.62-.35-.86-1.07-1.24-.7.39.87-.8,1.7-1.11,2.64l-1.48-1.43.65-.61c-.33-.32-2.46,1.09-3.68-.58-2.33-2.5-5.33-4.65-7.79-7,.39-.37,1.14-.14,1.88.09-.33-.32-.94-.67-1-1.23,0,1.25-1.49-.46-1.26.26-3.31,0-4.48-3.58-7.11-3.89C26.72,9.24,2.77,30.28,1.26,32c-.49-.47-1-.95-1-1.23-.22.53.63,1.6,1.38,1.83l.9-.86c1.53.74-.19.81,1.09,1.79-.6.83-1.86,0-2.92-.74C1.52,33.68,1.92,35,3,34.47c.56,1-.9.86-.18,2.06.92.38,2.51.43,2.94,1.6l-.13.12C7,40.76,9.71,39.7,10.87,42.06l-.42.09c.27,1,2.06,1.49,2.82,3-.2-.45,0-1.25.77-.74C15,46,16.3,46.31,16.77,47.75l1.59,0c4.55,4.15,24,18.88,28.76,22.77l-.29,0C54.32,76.28,69,88.91,77.26,94.2c.51,1.72,2.24,2.9,3.26,4.13-.4-.88.28-1.22.77-.74,3.57,3.19.69-.31,4.64,2.52,4.83,2.93,20.37,17.59,23.59,21.44,3,.63,4.78,3.61,7.35,4.61l-.42.09c2.48,1.41,13.64,12.71,16.45,14.43l-.2-.44c2.74,1.16,1.42,2.11,2.8,3.94.83-1.42,3.27-.54,4.06,0l-.26.25c1.24.7,4.56,1.69,6.46,3l-.65.62c2.08.52,4.57,3.18,5.69,4,2.16,2.34,4.87,6.68,8.84,8.54l.44,3.7.46.07s23.19-20.35,23.17-28.92l.64-.61-.92-.64c-.72-1.19-1.85-.81-1.21-1.42l1.31,1.26c-.85-1.06.17-.81.88-.86a4.15,4.15,0,0,1-.87-1.35c-.42.09-.09.4-.06.68-.75-.22-2-.24-2.44-1.12-1-1,.86-1.14-.28-2.25-5.94-6-11.45-12-18-17.39.09-.41.26-.25.55-.21-2.19-1.37-3.83-3-5.85-4.17a2.58,2.58,0,0,1,.08-1.65C157.33,106.5,147.23,98,147.2,97.67Z"/><path class="cls-1" d="M159.43.07c-1.13-.29-2,.38-2.93,1A3.14,3.14,0,0,0,159.43.07Z"/><path class="cls-1" d="M156.47,1v0l0,0Z"/><path class="cls-1" d="M31.15,169.64l.62-.62A2.29,2.29,0,0,0,31.15,169.64Z"/><path class="cls-1" d="M116.2,33l.94,1.3c-1.87,1.69-1.76-.88-3.24,1,.82,2.29-3.05,2.38-2.85,3.81-.11-.14-1,.56-1.42,0,.55,1.15-.69,1-1,1.7,0,.43.39.15.78.3l-.94,1.41c-.75.13-1.34-.3-.91-.87C104,44.08,87.81,56.87,84.75,60.4c1.06.3,1.71-1.12,3.08-.38-.37,1.42-1.54,1-1.37,2-1.79-1.32-2.36,1.39-4.51.36l.55,1.15-1-.16c-3.18,4.53-.51,1.29-4.27,4.23-1.94,2-1.8,4.12-3.36,4.67.18-.15,1.13,0,.8.72-.8-.72-.91,1.85-1.89,1.26-.44.57-2.23,2-.68,2.56-.77-.29-2.49.82-2-.45-.54.42-1.18.69-1.33,1.26l.93-.27C68.15,79,66.45,79,66.21,81l1-.12c-1,1-1.76,1.83-3.14,1.09l.77-1.27a13.5,13.5,0,0,0-3.57,4.37l.53-.42c-.85,2.71-9.57,12-10,14.88l1.53.17-.81,2c.18-.15-1.74-3.37-1.36-3.22-3,2.81-18.5,17.69-21.86,19.64-1.56.55-1.4-1.16-1.5-1.31-1.12,1.56.19,1.44-1.07,2.42-.46.13-.52-.73-.44-1-.43.56-1.18.7-.87,1.13.93-.27,1.58,1,2.46,1.46l-1.61,1.27-.52-.73c-.36.29.74,2.59-1.08,3.56-2.79,2-5.34,4.63-8,6.74-.31-.43,0-1.14.34-1.85-.36.28-.79.84-1.36.84,1.24.15-.65,1.41.09,1.28-.43,3.28-4.16,3.94-4.84,6.5C12,140,29.53,166.62,31.07,168.35c-.54.43-1.08.85-1.36.84.49.29,1.67-.4,2-1.11l-.73-1c.94-1.42.78.29,1.92-.83.74.7-.22,1.84-1.13,2.78.95-.69,2.32-.91,1.94-2.06,1.1-.41.73,1,2,.46.51-.85.78-2.42,2-2.69l.11.15c2.67-1,2-3.83,4.49-4.65l0,.43c1-.13,1.76-1.83,3.33-2.38-.47.14-1.24-.16-.63-.86,1.75-.7,2.23-2,3.72-2.24l.27-1.56c4.74-3.94,22-21.11,26.52-25.32l-.08.28c6.73-6.62,21.25-19.37,27.63-26.85,1.78-.26,3.18-1.81,4.54-2.65-.92.27-1.16-.45-.62-.87,3.65-3.08-.21-.72,3.13-4.24,3.57-4.38,20.23-17.73,24.49-20.39,1-2.84,4.24-4.22,5.58-6.63l0,.43c1.73-2.26,14.47-11.75,16.56-14.29l-.46.14c1.53-2.55,2.29-1.11,4.28-2.23-1.29-1-.08-3.31.53-4l.21.29c.86-1.13,2.3-4.28,3.88-6l.52.72c.81-2,3.78-4.09,4.75-5.07,2.62-1.82,7.29-3.9,9.68-7.58l3.72.09.13-.46S167.11,3.23,158.62,2.06l-.52-.72-.75.82c-1.28.55-1.06,1.72-1.58,1L157.2,2c-1.16.69-.78-.28-.73-1a4,4,0,0,1-1.46.67c0,.43.39.15.67.16-.33.7-.52,2-1.45,2.26-1.07.84-1-1-2.26,0-6.74,5-13.5,9.66-19.71,15.42-.39-.14-.21-.29-.14-.57-1.66,2-3.45,3.38-4.93,5.21a2.69,2.69,0,0,1-1.62-.3C126.34,24.16,116.49,33,116.2,33Z"/></g></g></g></svg>