<svg xmlns="http://www.w3.org/2000/svg" viewBox="0 0 120.88 99.5"><defs><style>.cls-1{fill:#ffeae6;}.cls-2{fill:#fff;}.cls-3{fill:#f27557;}</style></defs><g id="Layer_2" data-name="Layer 2"><g id="Layer_2-2" data-name="Layer 2"><path class="cls-1" d="M60.57,1.78c-22.22,0-41.46,10.54-50.84,25.9A39.9,39.9,0,0,0,9.6,69.91L0,99.5c7-5.3,15.58-11.2,24.23-14.33A64.2,64.2,0,0,0,60.57,96,64.07,64.07,0,0,0,97.29,84.91a51.05,51.05,0,0,0,11.89-11.45,41.06,41.06,0,0,0,8.34-24.55C117.52,22.88,92,1.78,60.57,1.78Z"/><path class="cls-2" d="M63.94,0C41.71,0,22.48,10.54,13.1,25.9A39.9,39.9,0,0,0,13,68.13L3.37,97.72c7-5.3,15.58-11.2,24.23-14.33A64.27,64.27,0,0,0,63.94,94.25a64.19,64.19,0,0,0,36.72-11.12,51.25,51.25,0,0,0,11.89-11.45,41.12,41.12,0,0,0,8.33-24.55C120.88,21.1,95.39,0,63.94,0Z"/><path class="cls-3" d="M64.21,4.09c-20.8,0-38.8,9.51-47.58,23.37a34.91,34.91,0,0,0-.12,38.11l-9,26.7c6.57-4.79,14.59-10.12,22.68-12.94a61.68,61.68,0,0,0,34,9.8,61.6,61.6,0,0,0,34.38-10,47.48,47.48,0,0,0,11.13-10.33,36.26,36.26,0,0,0,7.8-22.16C117.52,23.13,93.65,4.09,64.21,4.09Z"/><polygon class="cls-1" points="3.37 97.72 0 99.5 9.61 69.91 12.97 68.13 3.37 97.72"/></g></g></svg>