<svg xmlns="http://www.w3.org/2000/svg" viewBox="0 0 100.74 111.45"><defs><style>.cls-1,.cls-2,.cls-5{fill:#f23545;}.cls-1,.cls-3,.cls-5{stroke:#f23545;stroke-miterlimit:10;}.cls-1{stroke-width:4px;}.cls-3{fill:#ffeae6;}.cls-4{fill:#fff;}</style></defs><g id="Layer_2" data-name="Layer 2"><g id="Layer_2-2" data-name="Layer 2"><g id="delete"><path class="cls-1" d="M81.91,20.85H18.83A12.82,12.82,0,0,0,6.14,35.43l7.53,54.26a22.9,22.9,0,0,0,22.69,19.76h28A22.91,22.91,0,0,0,87.07,89.69l7.52-54.26A12.81,12.81,0,0,0,81.91,20.85Z"/><path class="cls-2" d="M50.37,37.36c-23.89,0-43.88-6.19-49.06-14.5A8,8,0,0,0,0,27.11C0,37.46,22.55,45.86,50.37,45.86s50.37-8.4,50.37-18.75a8,8,0,0,0-1.32-4.25C94.25,31.17,74.26,37.36,50.37,37.36Z"/><path class="cls-2" d="M50.37,11.57c23.89,0,43.88,4.82,49.05,11.29a5.31,5.31,0,0,0,1.32-3.31C100.74,11.49,78.19,5,50.37,5S0,11.49,0,19.55a5.29,5.29,0,0,0,1.31,3.31C6.49,16.39,26.48,11.57,50.37,11.57Z"/><ellipse class="cls-3" cx="50.37" cy="22.86" rx="49.05" ry="14.5"/><path class="cls-4" d="M61.57,21.46V12.15a2.56,2.56,0,0,0-2.68-2.23h-17a2.56,2.56,0,0,0-2.68,2.23v9.31H29.89V12.15A12.07,12.07,0,0,1,41.85,0h17a12.07,12.07,0,0,1,12,12.15v9.31Z"/><path class="cls-4" d="M63.12,19.53V12.15A4.2,4.2,0,0,0,58.89,8h-17a4.2,4.2,0,0,0-4.23,4.16v7.38H31.44V12.15A10.33,10.33,0,0,1,41.85,1.93h17a10.32,10.32,0,0,1,10.4,10.22v7.38Z"/><path class="cls-5" d="M68.06,18.32h-3.7V12.15a5.43,5.43,0,0,0-5.47-5.37h-17a5.43,5.43,0,0,0-5.47,5.37v6.17h-3.7V12.15a9.1,9.1,0,0,1,9.17-9h17a9.1,9.1,0,0,1,9.17,9Z"/></g></g></g></svg>