<svg xmlns="http://www.w3.org/2000/svg" viewBox="0 0 101.74 111.45"><defs><style>.cls-1,.cls-4{fill:#f27557;}.cls-1,.cls-2,.cls-3,.cls-4,.cls-5{stroke:#f27557;stroke-miterlimit:10;}.cls-1{stroke-width:4px;}.cls-2,.cls-6{fill:#fff;}.cls-3{fill:none;}.cls-5{fill:#ffeae6;}</style></defs><g id="Layer_2" data-name="Layer 2"><g id="Layer_2-2" data-name="Layer 2"><g id="delete"><path class="cls-1" d="M82.41,20.85H19.33A12.82,12.82,0,0,0,6.64,35.43l7.53,54.26a22.9,22.9,0,0,0,22.69,19.76h28A22.91,22.91,0,0,0,87.57,89.69l7.52-54.26A12.81,12.81,0,0,0,82.41,20.85Z"/><line class="cls-2" x1="0.5" y1="18.62" x2="0.5" y2="27.11"/><path class="cls-3" d="M99.92,22.86a8,8,0,0,1,1.32,4.25V18.62A8,8,0,0,1,99.92,22.86Z"/><path class="cls-4" d="M50.87,37.36C27,37.36,7,31.17,1.81,22.86A8,8,0,0,0,.5,27.11c0,10.35,22.55,18.75,50.37,18.75s50.37-8.4,50.37-18.75a8,8,0,0,0-1.32-4.25C94.75,31.17,74.76,37.36,50.87,37.36Z"/><path class="cls-4" d="M50.87,11.57c23.89,0,43.88,4.82,49.05,11.29a5.31,5.31,0,0,0,1.32-3.31C101.24,11.49,78.69,5,50.87,5S.5,11.49.5,19.55a5.29,5.29,0,0,0,1.31,3.31C7,16.39,27,11.57,50.87,11.57Z"/><ellipse class="cls-5" cx="50.87" cy="22.86" rx="49.05" ry="14.5"/><path class="cls-6" d="M62.07,21.46V12.15a2.56,2.56,0,0,0-2.68-2.23h-17a2.56,2.56,0,0,0-2.68,2.23v9.31H30.39V12.15A12.07,12.07,0,0,1,42.35,0h17a12.07,12.07,0,0,1,12,12.15v9.31Z"/><path class="cls-6" d="M63.62,19.53V12.15A4.2,4.2,0,0,0,59.39,8h-17a4.2,4.2,0,0,0-4.23,4.16v7.38H31.94V12.15A10.33,10.33,0,0,1,42.35,1.93h17a10.32,10.32,0,0,1,10.4,10.22v7.38Z"/><path class="cls-4" d="M68.56,18.32h-3.7V12.15a5.43,5.43,0,0,0-5.47-5.37h-17a5.43,5.43,0,0,0-5.47,5.37v6.17h-3.7V12.15a9.1,9.1,0,0,1,9.17-9h17a9.1,9.1,0,0,1,9.17,9Z"/></g></g></g></svg>