<svg xmlns="http://www.w3.org/2000/svg" viewBox="0 0 745.41 668.42"><defs><style>.cls-1{fill:#fff;}.cls-2{fill:#f27457;}.cls-3{stroke:#000;stroke-miterlimit:10;stroke-width:19px;}</style></defs><g id="Layer_2" data-name="Layer 2"><g id="Layer_1-2" data-name="Layer 1"><path class="cls-1" d="M430.08,659.42C339.16,659.42,239,633.73,162,590.7c-42.85-24-77.53-52.43-103.08-84.6-28-35.23-44.43-74.39-48.89-116.39C2.75,321.3,34.35,244,99,172.15,186.76,74.57,315.67,9,419.78,9c3.33,0,6.67.07,9.93.2,40.48,1.64,80.33,14,118.44,36.71,36.09,21.5,69,51.21,97.74,88.29a444,444,0,0,1,66.24,121.4c16.11,45.13,24.28,90.57,24.28,135.07,0,43.52-8.06,83.12-24,117.71A231.14,231.14,0,0,1,647.38,592c-27.16,22-59.86,39-97.2,50.49C513.48,653.71,473.07,659.42,430.08,659.42Z"/><path d="M419.8,18c3.2,0,6.41.06,9.55.19,39,1.59,77.39,13.51,114.19,35.45,35.13,20.93,67.17,49.89,95.24,86.08a435,435,0,0,1,64.88,118.91c15.76,44.15,23.75,88.57,23.75,132,0,42.21-7.78,80.55-23.13,114A222.28,222.28,0,0,1,641.71,585c-26.26,21.31-57.94,37.76-94.17,48.88-35.84,11-75.36,16.58-117.46,16.58-89.45,0-188-25.26-263.69-67.58C124.57,559.45,90.78,531.75,66,500.51,39.07,466.64,23.26,429,19,388.76c-3.57-33.55,2.6-69.36,18.33-106.42,15-35.36,38-70.4,68.36-104.15a519.22,519.22,0,0,1,69.35-64A532.6,532.6,0,0,1,254.87,63.3C312.2,33.67,369.22,18,419.8,18h0m0-18C229.88,0-18.39,207.5,1.08,390.67c19.56,184,254.84,277.75,429,277.75s315.33-92.69,315.33-277.75S604.09,7.28,430.08.21C426.66.07,423.24,0,419.78,0Z"/><path class="cls-2" d="M665.39,306.66c-14.88-1.27-26.18,4.93-25.34,12.91.75,7.08,11,13.1,23,14.12s23.16-3.16,25.1-10C690.36,316,680.28,307.93,665.39,306.66Z"/><ellipse class="cls-2" cx="429.19" cy="367.36" rx="40.66" ry="23.1"/><circle class="cls-3" cx="481.21" cy="299.47" r="13.25"/><circle class="cls-3" cx="602.51" cy="286.22" r="9.37"/><path d="M564.91,482.49c46.92,0,62.54,18.67,62.54,18.67h0C643.35,468.6,644,442.51,644,442.51L497.34,467.84c0,9.17,3.07,21.1,8.36,33.32h0S518,482.49,564.91,482.49Z"/><path d="M597.34,545.18a184.84,184.84,0,0,0,30.11-44h0s-15.62-18.67-62.54-18.67-59.21,18.67-59.21,18.67h0C522.73,540.51,562.75,582.82,597.34,545.18Z"/><path class="cls-2" d="M568.22,549.82c-18.46,0-38.51-22.4-50.41-46.34,6-4.26,19.87-11,47.1-11,22.36,0,36.57,4.55,44.55,8.36a52.55,52.55,0,0,1,5.37,2.95A175.94,175.94,0,0,1,590,538.41c-7,7.57-14.28,11.41-21.76,11.41Z"/></g></g></svg>