<svg xmlns="http://www.w3.org/2000/svg" viewBox="0 0 67.73 67.33"><defs><style>.cls-1{fill:#f23545;opacity:0.8;}.cls-2{fill:#ffeae6;}.cls-3{fill:#f2f2f2;}.cls-4{fill:#1a1a1a;}</style></defs><g id="Layer_2" data-name="Layer 2"><g id="Layer_2-2" data-name="Layer 2"><g id="Small_Pencil" data-name="Small Pencil"><polygon class="cls-1" points="58.66 47.12 23.56 13.4 13.35 23.51 48.46 57.23 58.66 47.12"/><polyline class="cls-2" points="58.66 47.12 67.73 67.33 48.41 57.18"/><polyline class="cls-2" points="31.52 25.69 55.25 50.48 56.85 48.9"/><path class="cls-2" d="M2.73,12.84C-3.16,7.07,1.76,4.3,5.49.68,7-.78,10.39.2,13.05,2.85c5.89,5.77,1,8.54-2.76,12.17C8.79,16.47,5.39,15.49,2.73,12.84Z"/><polygon class="cls-3" points="2.93 13.4 13.26 23.65 23.77 13.35 13.45 3.1 2.93 13.4"/><polyline class="cls-4" points="64.21 59.48 60.58 63.62 67.73 67.33"/></g></g></g></svg>