<svg xmlns="http://www.w3.org/2000/svg" viewBox="0 0 184.3 183.05"><defs><style>.cls-1{fill:#fbb03b;}.cls-2{fill:#edb883;}.cls-3{fill:#f7931e;}.cls-4{fill:#ff7bac;}.cls-5{fill:#f2f2f2;}.cls-6{fill:#1a1a1a;}</style></defs><g id="Layer_2" data-name="Layer 2"><g id="Layer_1-2" data-name="Layer 1"><g id="Small_Pencil" data-name="Small Pencil"><polygon class="cls-1" points="159.35 127.43 62.73 34.62 34.64 62.43 131.25 155.23 159.35 127.43"/><polyline class="cls-2" points="159.35 127.43 184.29 183.05 131.11 155.09"/><polyline class="cls-3" points="84.63 68.43 151.84 134.79 154.37 132.31"/><polyline class="cls-3" points="107.45 115.67 42.63 54.68 40.03 57.36"/><path class="cls-4" d="M3.12,30.79h0A10.39,10.39,0,0,1,3.07,16L16.35,3a10.75,10.75,0,0,1,15,.14h0a10.39,10.39,0,0,1,0,14.79l-13.28,13A10.74,10.74,0,0,1,3.12,30.79Z"/><polygon class="cls-5" points="5.96 34.62 34.39 62.82 63.32 34.46 34.89 6.26 5.96 34.62"/><polyline class="cls-6" points="174.6 161.44 164.62 172.82 184.29 183.05"/></g></g></g></svg>