<svg xmlns="http://www.w3.org/2000/svg" viewBox="0 0 140.25 139.28"><defs><style>.cls-1{fill:#f27557;}.cls-2{fill:#ffeae6;}.cls-3{fill:#f2f2f2;}.cls-4{fill:#1a1a1a;}</style></defs><g id="Layer_2" data-name="Layer 2"><g id="Layer_2-2" data-name="Layer 2"><g id="Small_Pencil" data-name="Small Pencil"><polygon class="cls-1" points="121.5 97.47 48.9 27.73 27.78 48.62 100.39 118.37 121.5 97.47"/><polyline class="cls-2" points="121.5 97.47 140.25 139.28 100.29 118.27"/><polyline class="cls-2" points="65.35 53.13 114.43 104.41 117.76 101.14"/><path class="cls-2" d="M5.81,26.57h0C.32,21.09-1.63,14.14,1.48,11.13l10-9.73c3.1-3,10.14-1,15.63,4.49h0c5.49,5.48,7.44,12.43,4.33,15.44l-10,9.73C18.34,34.07,11.3,32.05,5.81,26.57Z"/><polygon class="cls-3" points="6.22 27.73 27.59 48.92 49.34 27.6 27.97 6.41 6.22 27.73"/><polyline class="cls-4" points="132.97 123.03 125.47 131.59 140.25 139.28"/></g></g></g></svg>