<svg xmlns="http://www.w3.org/2000/svg" viewBox="0 0 517 517"><defs><style>.cls-1{fill:#021859;}.cls-2{fill:#0b9ed9;opacity:0.35;}.cls-3{font-size:72px;fill:#fff;font-family:HalyardDisplayExtraLight, Halyard Display;}.cls-4{letter-spacing:-0.02em;}.cls-5{letter-spacing:-0.02em;}.cls-6{letter-spacing:-0.01em;}.cls-7{letter-spacing:-0.01em;}.cls-8{letter-spacing:-0.02em;}.cls-9{letter-spacing:-0.02em;}.cls-10{letter-spacing:0em;}</style></defs><g id="Layer_2" data-name="Layer 2"><g id="Layer_7" data-name="Layer 7"><path class="cls-1" d="M517,0V517H0V0ZM154.9,472.19a228.35,228.35,0,0,0,59.66-39.52,208.48,208.48,0,0,0,26.66-29.91C268,366.2,282.93,320.69,285.7,267.48c2.1-40.32,12.75-74.09,31.64-100.38,14.89-20.73,35.25-37.32,60.5-49.3C423.4,96.18,469.49,96.87,470,96.88h-.11l1.76-64.11c-2.41-.07-59.75-1.31-118.79,25.94C317.07,75.2,288,98.61,266.25,128.3c-26.8,36.67-41.81,82.37-44.59,135.84-2.09,40.06-12.7,73.63-31.52,99.8-14.85,20.66-35.16,37.21-60.35,49.19C84.35,434.76,38.36,434.2,37.9,434.19H38L36.43,498.3C38.84,498.36,96,499.44,154.9,472.19Z"/><path class="cls-2" d="M201.49,418.55a208.41,208.41,0,0,0,26.65-29.91c26.75-36.55,41.71-82.07,44.49-135.28,2.1-40.32,12.74-74.09,31.63-100.38,14.9-20.73,35.26-37.32,60.51-49.3,45.56-21.61,91.65-20.93,92.11-20.92h-.11l1.76-64.11c-2.41-.07-59.75-1.31-118.8,25.94-35.73,16.49-64.85,39.9-86.55,69.6-26.81,36.66-41.81,82.37-44.6,135.83-2.09,40.06-12.69,73.64-31.51,99.81C162.21,370.48,141.91,387,116.72,399c-45.45,21.62-91.43,21.06-91.89,21.05h.11l-1.58,64.12c2.4.06,59.58,1.14,118.47-26.11A228.55,228.55,0,0,0,201.49,418.55Z"/><text class="cls-3" transform="translate(341.66 391.53)"><tspan class="cls-4">F</tspan><tspan x="34.13" y="0">l</tspan><tspan class="cls-5" x="46.08" y="0">o</tspan><tspan class="cls-6" x="81.94" y="0">w</tspan><tspan x="-8.53" y="86.4">S</tspan><tspan class="cls-7" x="31.35" y="86.4">t</tspan><tspan class="cls-8" x="51.88" y="86.4">a</tspan><tspan class="cls-9" x="83.92" y="86.4">t</tspan><tspan class="cls-10" x="103.5" y="86.4">e</tspan></text><text/></g></g></svg>