<svg xmlns="http://www.w3.org/2000/svg" viewBox="0 0 119.22 117.77"><defs><style>.cls-1{fill:#ffeae6;}.cls-2{fill:#f27557;}.cls-3{fill:#fff;}.cls-4{fill:none;}.cls-5{fill:#ffd65c;}</style></defs><g id="Layer_2" data-name="Layer 2"><g id="Layer_2-2" data-name="Layer 2"><path class="cls-1" d="M40.23,75.28C28.35,63.4,29.91,42.51,43.71,28.71L61,11.46C74.76-2.34,95.65-3.9,107.53,8l2.26,2.26c11.88,11.88,10.32,32.77-3.48,46.57L89.05,74.06c-13.79,13.8-34.68,15.36-46.56,3.48ZM91.75,23.76C87.63,19.63,80.12,20.43,75,25.52L57.77,42.78c-5.1,5.1-5.89,12.6-1.76,16.72l2.26,2.26C62.39,65.89,69.89,65.1,75,60L92.25,42.75C97.34,37.65,98.14,30.14,94,26Z"/><path class="cls-1" d="M7.9,107.63C-3.86,95.87-2.31,75.18,11.35,61.52L28.44,44.43C42.1,30.77,62.78,29.22,74.55,41l2.24,2.23C88.55,55,87,75.67,73.34,89.34L56.26,106.42c-13.67,13.67-34.35,15.21-46.12,3.45Zm51-51c-4.08-4.09-11.51-3.3-16.56,1.75L25.28,75.44c-5.05,5-5.84,12.48-1.75,16.56l2.24,2.24c4.08,4.09,11.51,3.3,16.56-1.74L59.42,75.41c5-5,5.83-12.48,1.74-16.56Z"/><path class="cls-2" d="M109.47,13.34l-2.15-2.14C97.25,1.12,79.37,2.6,67.47,14.5L51.09,30.88c-11.9,11.9-13.38,29.77-3.3,39.85l2.14,2.15C60,83,77.89,81.47,89.79,69.58L106.17,53.2C118.07,41.3,119.55,23.42,109.47,13.34ZM80.79,60.57c-6.05,6.05-15.1,6.8-20.22,1.68L58.42,60.1C53.3,55,54.05,45.93,60.1,39.88L76.47,23.5c6-6,15.1-6.79,20.22-1.67L98.84,24c5.12,5.13,4.37,14.18-1.68,20.22Z"/><path class="cls-2" d="M109.47,13.34l-2.15-2.14C97.25,1.12,79.37,2.6,67.47,14.5L51.09,30.88c-11.9,11.9-13.38,29.77-3.3,39.85l2.14,2.15C60,83,77.89,81.47,89.79,69.58L106.17,53.2C118.07,41.3,119.55,23.42,109.47,13.34ZM80.79,60.57c-6.05,6.05-15.1,6.8-20.22,1.68L58.42,60.1C53.3,55,54.05,45.93,60.1,39.88L76.47,23.5c6-6,15.1-6.79,20.22-1.67L98.84,24c5.12,5.13,4.37,14.18-1.68,20.22Z"/><path class="cls-3" d="M13.68,104.84C2.4,93.57,3.88,73.74,17,60.64L33.36,44.27c13.09-13.1,32.92-14.58,44.2-3.3l2.14,2.14c11.28,11.28,9.8,31.1-3.3,44.2L60,103.69c-13.09,13.09-32.92,14.58-44.2,3.3Zm48.9-48.9c-3.91-3.91-11-3.16-15.87,1.68L30.33,74c-4.84,4.84-5.59,12-1.68,15.88L30.8,92c3.91,3.92,11,3.17,15.87-1.67L63.05,74c4.84-4.84,5.59-12,1.68-15.87Z"/><path class="cls-2" d="M77.53,45.28l-2.15-2.14c-10.07-10.08-27.95-8.6-39.85,3.3L19.15,62.82c-11.9,11.9-13.38,29.77-3.3,39.85L18,104.82c10.07,10.08,28,8.59,39.85-3.3L74.23,85.14C86.13,73.24,87.61,55.36,77.53,45.28ZM48.85,92.51c-6.05,6-15.1,6.8-20.22,1.68L26.48,92c-5.12-5.12-4.37-14.17,1.68-20.22L44.53,55.44c6-6,15.1-6.79,20.22-1.67l2.15,2.14C72,61,71.27,70.09,65.22,76.13Z"/><path class="cls-4" d="M47.79,70.73a22.73,22.73,0,0,1-6.26-12.28L28.16,71.82c-6.05,6.05-6.8,15.1-1.68,20.22l2.15,2.15c5.12,5.12,14.17,4.37,20.22-1.68L62.22,79.13a22.71,22.71,0,0,1-12.29-6.25Z"/><path class="cls-4" d="M77.53,45.28a22.8,22.8,0,0,1,6.26,12.29L97.16,44.19c6-6,6.8-15.09,1.68-20.22l-2.15-2.14c-5.12-5.12-14.17-4.37-20.22,1.67L63.1,36.88a22.73,22.73,0,0,1,12.28,6.26Z"/><path class="cls-4" d="M66.9,55.91l-2.15-2.14a12.11,12.11,0,0,0-9.68-3.35,12.14,12.14,0,0,0,3.35,9.68l2.15,2.15a12.14,12.14,0,0,0,9.68,3.35A12.18,12.18,0,0,0,66.9,55.91Z"/><path class="cls-2" d="M109.47,13.34l-2.15-2.14C97.25,1.12,79.37,2.6,67.47,14.5L51.09,30.88a34.8,34.8,0,0,0-6.53,9,29.88,29.88,0,0,1,18.54-3L76.47,23.5c6-6,15.1-6.79,20.22-1.67L98.84,24c5.12,5.13,4.37,14.18-1.68,20.22L83.79,57.57a29.9,29.9,0,0,1-3,18.54,35.62,35.62,0,0,0,9-6.53L106.17,53.2C118.07,41.3,119.55,23.42,109.47,13.34Z"/><path class="cls-2" d="M60.57,62.25,58.42,60.1a12.14,12.14,0,0,1-3.35-9.68,16.91,16.91,0,0,0-10.54,5l-3,3a22.73,22.73,0,0,0,6.26,12.28l2.14,2.15a22.71,22.71,0,0,0,12.29,6.25l3-3a16.85,16.85,0,0,0,5-10.53A12.14,12.14,0,0,1,60.57,62.25Z"/><path class="cls-4" d="M64.75,53.77a11.65,11.65,0,0,0-6.6-3.24,9.12,9.12,0,0,0,2.44,7.4l2.15,2.14a9.08,9.08,0,0,0,7.4,2.45,11.67,11.67,0,0,0-3.24-6.61Z"/><path class="cls-4" d="M94.52,24c-3.92-3.91-11-3.16-15.88,1.68L66.56,37.76a22.13,22.13,0,0,1,8.82,5.38l2.15,2.14a22.2,22.2,0,0,1,5.38,8.82L95,42c4.84-4.84,5.59-12,1.68-15.87Z"/><path class="cls-3" d="M74.23,85.14,57.85,101.52C46,113.41,28.07,114.9,18,104.82l-2.15-2.15c-10.08-10.08-8.6-27.95,3.3-39.85L35.53,46.44A34.63,34.63,0,0,1,40,42.65a36,36,0,0,1,2.3-5,38.14,38.14,0,0,0-9,6.65L17,60.64c-13.1,13.1-14.58,32.93-3.3,44.2L15.82,107c11.28,11.28,31.11,9.79,44.2-3.3L76.4,87.31a38.14,38.14,0,0,0,6.65-9,37.18,37.18,0,0,1-5,2.3A34.63,34.63,0,0,1,74.23,85.14Z"/><path class="cls-3" d="M39,61l2.58-2.57a29.88,29.88,0,0,1,3-18.54A34.77,34.77,0,0,0,40,42.65,31.64,31.64,0,0,0,39,61Z"/><path class="cls-4" d="M62.58,55.94a8.5,8.5,0,0,0-4.2-2.22,8.47,8.47,0,0,0,2.21,4.21l2.15,2.14a8.32,8.32,0,0,0,4.2,2.21,8.37,8.37,0,0,0-2.21-4.19Z"/><path class="cls-4" d="M79.7,43.11a25.2,25.2,0,0,1,5.6,8.61L95,42c4.84-4.84,5.59-12,1.68-15.87L94.52,24c-3.92-3.91-11-3.16-15.88,1.68L69,35.37A25.29,25.29,0,0,1,77.56,41Z"/><path class="cls-3" d="M63.1,36.88l-3,3a16.88,16.88,0,0,0-5,10.54,13.75,13.75,0,0,1,3.08.11,10.55,10.55,0,0,0,.23,3.19,8.5,8.5,0,0,1,4.2,2.22l2.15,2.15a8.37,8.37,0,0,1,2.21,4.19,10.33,10.33,0,0,0,3.2.24,13.9,13.9,0,0,0,8.47-4.12l4.3-4.3,2.39-2.38a25.2,25.2,0,0,0-5.6-8.61L77.56,41A25.29,25.29,0,0,0,69,35.37l-2.39,2.39A23.7,23.7,0,0,0,63.1,36.88Z"/><path class="cls-4" d="M45.62,72.9A25,25,0,0,1,40,64.31L30.33,74c-4.84,4.84-5.59,12-1.68,15.88L30.8,92c3.91,3.92,11,3.17,15.87-1.67l9.69-9.69a25.11,25.11,0,0,1-8.6-5.6Z"/><path class="cls-3" d="M30.8,92l-2.15-2.14C24.74,86,25.49,78.83,30.33,74L40,64.31A28.66,28.66,0,0,1,39,61L28.16,71.82c-6.05,6.05-6.8,15.1-1.68,20.22l2.15,2.15c5.12,5.12,14.17,4.37,20.22-1.68l10.79-10.8a27.25,27.25,0,0,1-3.28-1.06l-9.69,9.69C41.84,95.18,34.71,95.93,30.8,92Z"/><path class="cls-2" d="M28.63,94.19,26.48,92c-5.12-5.12-4.37-14.17,1.68-20.22L39,61A31.64,31.64,0,0,1,40,42.65a34.63,34.63,0,0,0-4.5,3.79L19.15,62.82c-11.9,11.9-13.38,29.77-3.3,39.85L18,104.82c10.07,10.08,28,8.59,39.85-3.3L74.23,85.14A34.63,34.63,0,0,0,78,80.64a31.66,31.66,0,0,1-18.38,1.07L48.85,92.51C42.8,98.56,33.75,99.31,28.63,94.19Z"/><path class="cls-5" d="M111.64,11.17,109.5,9C98.22-2.25,78.39-.77,65.3,12.33L48.92,28.7a37.88,37.88,0,0,0-6.59,8.92C51,33,60.8,32.14,69,35.37l9.69-9.69c4.84-4.84,12-5.59,15.88-1.68l2.15,2.15c3.91,3.91,3.16,11-1.68,15.87l-9.69,9.7c3.23,8.14,2.41,17.94-2.25,26.62A38.11,38.11,0,0,0,92,71.75l16.38-16.38C121.43,42.27,122.92,22.45,111.64,11.17Z"/><path class="cls-3" d="M111.64,11.17,109.5,9C98.22-2.25,78.39-.77,65.3,12.33L48.92,28.7a37.88,37.88,0,0,0-6.59,8.92C51,33,60.8,32.14,69,35.37l9.69-9.69c4.84-4.84,12-5.59,15.88-1.68l2.15,2.15c3.91,3.91,3.16,11-1.68,15.87l-9.69,9.7c3.23,8.14,2.41,17.94-2.25,26.62A38.11,38.11,0,0,0,92,71.75l16.38-16.38C121.43,42.27,122.92,22.45,111.64,11.17Z"/><path class="cls-3" d="M44.56,39.91a29.88,29.88,0,0,0-3,18.54L39,61A28.66,28.66,0,0,0,40,64.31l6.7-6.69c3.4-3.41,7.92-4.74,11.67-3.9a10.55,10.55,0,0,1-.23-3.19,13.75,13.75,0,0,0-3.08-.11,16.88,16.88,0,0,1,5-10.54l3-3a23.7,23.7,0,0,1,3.46.88L69,35.37C60.8,32.14,51,33,42.33,37.62a36,36,0,0,0-2.3,5A34.77,34.77,0,0,1,44.56,39.91Z"/><path class="cls-3" d="M85.3,51.72,82.91,54.1l-4.3,4.3a13.9,13.9,0,0,1-8.47,4.12,10.33,10.33,0,0,1-3.2-.24,8.32,8.32,0,0,1-4.2-2.21l-2.15-2.14a8.47,8.47,0,0,1-2.21-4.21c-3.75-.84-8.27.49-11.67,3.9L40,64.31a25,25,0,0,0,5.61,8.59l2.14,2.15a25.11,25.11,0,0,0,8.6,5.6,27.25,27.25,0,0,0,3.28,1.06A31.66,31.66,0,0,0,78,80.64a37.18,37.18,0,0,0,5-2.3C87.71,69.66,88.53,59.86,85.3,51.72Z"/><path class="cls-2" d="M77.53,45.28l-2.15-2.14a22.13,22.13,0,0,0-8.82-5.38l-4.29,4.29a13.84,13.84,0,0,0-4.12,8.48,11.65,11.65,0,0,1,6.6,3.24l2.15,2.14a11.67,11.67,0,0,1,3.24,6.61,13.9,13.9,0,0,0,8.47-4.12l4.3-4.3A22.2,22.2,0,0,0,77.53,45.28Z"/><path class="cls-2" d="M63.1,36.88a29.88,29.88,0,0,0-18.54,3A34.77,34.77,0,0,0,40,42.65,31.64,31.64,0,0,0,39,61l2.58-2.57,3-3a16.91,16.91,0,0,1,10.54-5,13.75,13.75,0,0,1,3.08.11,13.84,13.84,0,0,1,4.12-8.48l4.29-4.29A23.7,23.7,0,0,0,63.1,36.88Z"/><path class="cls-2" d="M83,59.85l-1.47,1.47a18,18,0,0,1-11,5.32,11.64,11.64,0,0,1-1.18,0,15,15,0,0,1-3.27-.37A12.53,12.53,0,0,1,59.81,63l-2.14-2.15a11.73,11.73,0,0,1-2.28-3.2,9.67,9.67,0,0,0-5.76,2.89L45,65.19A20.51,20.51,0,0,0,48.54,70l2.15,2.14a20.81,20.81,0,0,0,7.18,4.68,22.82,22.82,0,0,0,2.8.9,25.06,25.06,0,0,0,6.22.77h0a28.84,28.84,0,0,0,9.74-1.73A28.16,28.16,0,0,0,80,75.28s7.7-5.09,11.13-8.53l14.31-14.31A32.08,32.08,0,0,0,115,32.28c.54-7.14-1.7-13.6-6.29-18.19L106.57,12A22.57,22.57,0,0,0,90.42,5.59a31.91,31.91,0,0,0-22.2,9.66L53.89,29.58a37.18,37.18,0,0,1,4.58-.29,32.77,32.77,0,0,1,9.38,1.33l7.87-7.87a17.79,17.79,0,0,1,12.39-5.39,13.06,13.06,0,0,1,9.33,3.71l2.15,2.15c5.53,5.53,4.78,15.28-1.67,21.73l-7.87,7.86-7,7"/></g></g></svg>