<svg xmlns="http://www.w3.org/2000/svg" viewBox="0 0 897.57 222.42"><defs><style>.cls-1,.cls-3{fill:#f23545;}.cls-1{opacity:0.75;}.cls-2{fill:#333;}.cls-3{opacity:0.5;}.cls-4{fill:#f2e4dc;}</style></defs><g id="Layer_2" data-name="Layer 2"><g id="Layer_1-2" data-name="Layer 1"><path class="cls-1" d="M93.68,43.19,69.93,163.67l3.77,27A348.85,348.85,0,0,0,32.26,202.1L0,213.24l59.57-87.75L46.2,57.77l12.35-4.24Q75.79,47.61,93.68,43.19Z"/><path class="cls-1" d="M822.62,46.36a323,323,0,0,0,40.74-13.2L897.57,19.5,853,95.87l-2,80.43-11.21,4.45c-11.53,4.6-23.23,8.6-35.23,12.07L831.47,56.18"/><path class="cls-2" d="M822.62,46.36l-.1,0,0-.1Z"/><path class="cls-3" d="M831.69,55.45l-45.75,154q-14.73,3.63-30.23,6.29a489.06,489.06,0,0,1-83.11,6.72c-9.45,0-19.27-.23-29.18-.7-73.94-3.45-150.17-19.49-223.88-35-69.31-14.6-141-29.69-209.23-33.87-12.28-.75-24.42-1.13-36.05-1.13-33,0-63.33,3-91.68,9q-6.39,1.35-12.65,2.93L115.5,10.33C147.92,3.4,182.25,0,219.35,0,232,0,245.23.41,258.56,1.22c71.77,4.4,145.08,19.85,216,34.77,71.93,15.14,146.32,30.79,216.4,34.07,9.1.42,18.09.64,26.72.64a433.15,433.15,0,0,0,73.55-5.89c9.47-1.62,18.63-3.55,27.57-5.81q6.44-1.64,12.71-3.5h0Z"/><path class="cls-4" d="M129.71,25.87l-3.77,12.68c9.88-1.86,19.94-3.33,29.78-4.41Q140.5,85.35,125.27,136.56c4.37-.5,6.56-.72,11-1.12Q151.51,84.23,166.73,33c10.55-1,21.17-1.57,31.56-1.81,1.52-5.07,2.27-7.6,3.78-12.68C178.07,19.44,154.14,21.37,129.71,25.87Z"/><path class="cls-4" d="M197.25,120.86q6.1-20.48,12.19-41c15.45.46,30.63,1.29,45.78,2.52,1.5-5.07,2.26-7.61,3.77-12.68-15.14-1.23-30.33-2.06-45.78-2.53q5.39-18,10.75-36.08c16.45.47,32.74,1.28,48.78,2.78,1.51-5.07,2.26-7.6,3.78-12.67-19.93-1.84-40.14-2.71-60.68-2.9Q198.73,75.9,181.6,133.44c21.32.19,42.26,1.14,62.91,3.1l3.77-12.67C231.51,122.23,214.47,121.36,197.25,120.86Z"/><path class="cls-4" d="M275.19,126.85q15.26-51.21,30.5-102.41c-4.24-.54-6.36-.8-10.58-1.28Q278,80.72,260.83,138.25c17.37,2.1,34.5,4.54,51.55,7.26,1.51-5.08,2.26-7.61,3.78-12.68C302.58,130.67,289,128.67,275.19,126.85Z"/><path class="cls-4" d="M338.46,136.66Q353.7,85.45,369,34.25c-4.26-.77-6.39-1.14-10.65-1.88Q341.17,89.92,324,147.46q26,4.59,51.65,9.7c1.5-5.07,2.27-7.61,3.77-12.68Q359,140.43,338.46,136.66Z"/><path class="cls-4" d="M446.87,49.63c-1.51,5.07-2.26,7.61-3.78,12.68q14.67,3.06,29.3,6.16-15.25,51.21-30.53,102.41l10.57,2.22Q467.69,121.89,483,70.68q14.78,3.09,29.58,6.11c1.51-5.07,2.26-7.61,3.78-12.68C493.11,59.37,470,54.48,446.87,49.63Z"/><path class="cls-4" d="M556.43,71.89c-4-.74-6-1.11-10-1.87q-36.9,53.63-73.9,107.24c4.81,1,7.21,1.48,12,2.45l17.7-26.44c14.9,2.95,29.87,5.79,45,8.41q.36,14.91.7,29.84c5,.83,7.48,1.23,12.45,2Q558.4,132.72,556.43,71.89Zm-46.25,69.53q17.79-26.49,35.55-53a2.21,2.21,0,0,0,.25,0q.46,29.91.91,59.81Q528.44,145,510.18,141.42Z"/><path class="cls-4" d="M586.65,184.17,617.22,81.76c-4.25-.58-6.38-.88-10.63-1.5q-17.18,57.54-34.36,115.08c17,2.39,34.07,4.47,51.41,6.14,1.52-5.07,2.27-7.61,3.79-12.68C613.71,187.49,600.15,185.93,586.65,184.17Z"/><path class="cls-4" d="M649.38,190.42q6.11-20.49,12.22-41c15.32.74,30.64,1.06,46.25.92,1.6-5.07,2.39-7.61,4-12.69-15.68.37-31.17-.06-46.45-.91q5.4-18,10.78-36.09c16.54.92,33.34,1.35,50.35.82,1.59-5.07,2.39-7.61,4-12.69-20.64.38-41,0-61-1.49q-17.18,57.54-34.36,115.08C655.41,204,676,204.29,697,203.9c1.58-5.08,2.38-7.61,4-12.69C683.53,191.55,666.38,191.37,649.38,190.42Z"/><path class="cls-4" d="M782.13,151.25a14,14,0,0,0-3.73-8.12,20.54,20.54,0,0,0-7.14-4.67c-2.82-1.12-5.8-2.15-8.92-3.08a43.84,43.84,0,0,1-8-3.11,13,13,0,0,1-4.7-3.93,9.39,9.39,0,0,1-1.59-5.15,22,22,0,0,1,1.11-6.83A29.81,29.81,0,0,1,759.94,101a34,34,0,0,1,7.38-4.1,31.67,31.67,0,0,1,7.46-2A14.65,14.65,0,0,1,783.37,96c2.47,1.22,4,3.52,4.81,6.86,5-4.57,7.51-6.87,12.46-11.54a16.27,16.27,0,0,0-9-8.26c-3.56-1.31-7.89-1.6-13-.92a46.19,46.19,0,0,0-12.29,3.5,55.09,55.09,0,0,0-12,7.21,53.6,53.6,0,0,0-10.4,10.87,50.19,50.19,0,0,0-7.17,14.64,36.32,36.32,0,0,0-2,12.17A18.08,18.08,0,0,0,737,139a16.23,16.23,0,0,0,5.57,5.57,39.49,39.49,0,0,0,7.95,3.54c3.58,1.19,6.72,2.33,9.37,3.22a17.71,17.71,0,0,1,6.21,3.29,8,8,0,0,1,2.66,5.06c.28,2.07-.1,4.89-1.17,8.47a29,29,0,0,1-4.37,8.91,36.82,36.82,0,0,1-6.53,7,34.44,34.44,0,0,1-7.62,4.77,26.26,26.26,0,0,1-7.59,2.23,16.33,16.33,0,0,1-10.65-2c-3-1.83-5-4.8-5.75-8.87-5.11,4.14-7.67,6.18-12.87,10.23a16.92,16.92,0,0,0,3.67,7.05,18.15,18.15,0,0,0,5.84,4.34,23.83,23.83,0,0,0,7.22,2,33.88,33.88,0,0,0,8,0,44.21,44.21,0,0,0,12.9-3.67,53.57,53.57,0,0,0,12.29-7.86A58.21,58.21,0,0,0,773,180.37a53.93,53.93,0,0,0,7.33-15.53Q782.87,156.38,782.13,151.25Z"/></g></g></svg>