<svg xmlns="http://www.w3.org/2000/svg" viewBox="0 0 697.53 131.98"><defs><style>.cls-1{fill:#576573;}</style></defs><title>unearth-slate</title><g id="Layer_2" data-name="Layer 2"><g id="Layer_1-2" data-name="Layer 1"><g id="unearth-slate"><path class="cls-1" d="M120.2,0V20.67h-14V84.85c0,13.41-2.18,24.11-11.79,34.08-9.24,9.61-21.39,13-34.26,13-12.51,0-24.11-2.9-33.36-12C16.32,109.68,14,98.26,14,84.12V20.67H0V0H50.4V20.67H38.62V81.58c0,6.17.18,12.69,3.8,18.13a21,21,0,0,0,17.77,9.07A20.69,20.69,0,0,0,76.87,101c4.35-5.62,4.71-12.69,4.71-19.4V20.67H69.8V0Z"/><path class="cls-1" d="M129.4,53.3H116.89V32.63h34.63V46.41c5.8-10.7,16.68-15.95,28.65-15.95a38.41,38.41,0,0,1,27.92,12c8,8.89,8.15,17.41,8.15,28.47v37.89h12.51v20.66H181.62V108.78h12.51V77.41c0-6,0-12.14-3.81-17.4-4-5.26-10.52-7.8-17-7.8-6.71,0-13.6,2.72-17.59,8.16-4.17,5.44-4.17,13.78-4.17,20.3v28.11H164v20.66H116.89V108.78H129.4Z"/><path class="cls-1" d="M324.37,101a49.72,49.72,0,0,1-45.69,31c-28.28,0-50.94-22.12-50.94-50.58,0-28.64,21.57-51.67,50.4-51.67,13.41,0,26.83,6,36.26,15.59C324,55.48,328,67.8,328,81.58l-.72,7.8H249a29.87,29.87,0,0,0,29,23.2c9.6,0,17.94-3.62,23.38-11.6ZM307.51,72.34c-3.81-14-16.14-22.85-30.46-22.85-13.05,0-25.56,10.16-28.28,22.85Z"/><path class="cls-1" d="M414.68,116.39C407.61,127.09,396.19,132,383.5,132c-27.74,0-49.68-23-49.68-50.4,0-28.1,22.48-51.48,50.76-51.48a34.8,34.8,0,0,1,30.1,16.31V32.63h34.63V53.3H437.16v55.48h12.15v20.66H414.68Zm.36-35.9a29.09,29.09,0,0,0-29.19-28.82c-16.5,0-29.19,13.6-29.19,29.91a29.15,29.15,0,0,0,28.83,28.83C402.17,110.41,415,97,415,80.49Z"/><path class="cls-1" d="M489.33,49.13c5.62-11.42,16.5-17,29-17.58V54.21c-7.07.36-13.6,2.17-19,7.07-7.25,6.16-8.34,14-8.34,23v24.48h12.51v20.66H456.34V108.78h12.5V53.3h-12.5V32.63h33Z"/><path class="cls-1" d="M561.67,108.78h17.58v20.66h-39.7V53.3H524.32V32.63h15.23V0h22.12V32.63h16.49V53.3H561.67Z"/><path class="cls-1" d="M620.66,47.14c6.16-10.88,16.49-16.68,29-16.68,11.24,0,20.85,5.25,27.38,14.14,7.25,9.79,8,19.22,8,30.82v33.36h12.51v20.66H650.39V108.78H662.9V81.4c0-7.07.54-14.14-3.26-20.3-4-6.17-10.52-8.89-17.59-8.89A21,21,0,0,0,625.37,60c-4.89,6-4.71,12.14-4.71,19.4v29.37h12.51v20.66H586V108.78h12.51V20.67H586V0h34.63Z"/></g></g></g></svg>